<mxfile host="app.diagrams.net" modified="2024-05-30T18:47:30.227Z" agent="Mozilla/5.0 (Macintosh; Intel Mac OS X 10_15_7) AppleWebKit/537.36 (KHTML, like Gecko) Chrome/125.0.0.0 Safari/537.36" etag="_5jv4gFs1BQTSKd4CSsa" version="24.4.10" type="github">
  <diagram name="Seite-1" id="mMHOEo7cuXuUmrjVVUj_">
    <mxGraphModel dx="2901" dy="680" grid="1" gridSize="10" guides="1" tooltips="1" connect="1" arrows="1" fold="1" page="1" pageScale="1" pageWidth="827" pageHeight="1169" math="0" shadow="0">
      <root>
        <mxCell id="0" />
        <mxCell id="1" parent="0" />
        <mxCell id="BHSRUamQ7bkJ-WpqZw3I-1" value="sd-terraform-interactions-metallb" style="shape=umlFrame;whiteSpace=wrap;html=1;pointerEvents=0;width=210;height=30;" vertex="1" parent="1">
          <mxGeometry x="-70" y="60" width="920" height="600" as="geometry" />
        </mxCell>
        <mxCell id="BHSRUamQ7bkJ-WpqZw3I-2" value="Terraform" style="shape=umlActor;verticalLabelPosition=bottom;verticalAlign=top;html=1;" vertex="1" parent="1">
          <mxGeometry x="50" y="110" width="30" height="60" as="geometry" />
        </mxCell>
        <mxCell id="BHSRUamQ7bkJ-WpqZw3I-3" value="Kubernetes" style="shape=umlActor;verticalLabelPosition=bottom;verticalAlign=top;html=1;" vertex="1" parent="1">
          <mxGeometry x="450" y="110" width="30" height="60" as="geometry" />
        </mxCell>
        <mxCell id="BHSRUamQ7bkJ-WpqZw3I-5" style="edgeStyle=orthogonalEdgeStyle;rounded=0;orthogonalLoop=1;jettySize=auto;html=1;exitX=0.5;exitY=0.5;exitDx=0;exitDy=0;exitPerimeter=0;entryX=0.147;entryY=0.998;entryDx=0;entryDy=0;entryPerimeter=0;dashed=1;endArrow=none;endFill=0;" edge="1" parent="1" source="BHSRUamQ7bkJ-WpqZw3I-16" target="BHSRUamQ7bkJ-WpqZw3I-1">
          <mxGeometry relative="1" as="geometry" />
        </mxCell>
        <mxCell id="BHSRUamQ7bkJ-WpqZw3I-6" style="edgeStyle=orthogonalEdgeStyle;rounded=0;orthogonalLoop=1;jettySize=auto;html=1;exitX=0.5;exitY=0.5;exitDx=0;exitDy=0;exitPerimeter=0;entryX=0.576;entryY=1.003;entryDx=0;entryDy=0;entryPerimeter=0;endArrow=none;endFill=0;dashed=1;" edge="1" parent="1" source="BHSRUamQ7bkJ-WpqZw3I-3" target="BHSRUamQ7bkJ-WpqZw3I-1">
          <mxGeometry relative="1" as="geometry">
            <Array as="points">
              <mxPoint x="465" y="662" />
            </Array>
          </mxGeometry>
        </mxCell>
        <mxCell id="BHSRUamQ7bkJ-WpqZw3I-9" value="namespace=metallb" style="endArrow=open;endSize=12;html=1;rounded=0;" edge="1" parent="1">
          <mxGeometry width="160" relative="1" as="geometry">
            <mxPoint x="70" y="300" as="sourcePoint" />
            <mxPoint x="460" y="300" as="targetPoint" />
          </mxGeometry>
        </mxCell>
        <mxCell id="BHSRUamQ7bkJ-WpqZw3I-10" value="" style="html=1;points=[[0,0,0,0,5],[0,1,0,0,-5],[1,0,0,0,5],[1,1,0,0,-5]];perimeter=orthogonalPerimeter;outlineConnect=0;targetShapes=umlLifeline;portConstraint=eastwest;newEdgeStyle={&quot;curved&quot;:0,&quot;rounded&quot;:0};" vertex="1" parent="1">
          <mxGeometry x="460" y="320" width="10" height="40" as="geometry" />
        </mxCell>
        <mxCell id="BHSRUamQ7bkJ-WpqZw3I-11" value="deploy namespace metallb" style="html=1;align=left;spacingLeft=2;endArrow=block;rounded=0;edgeStyle=orthogonalEdgeStyle;curved=0;rounded=0;" edge="1" target="BHSRUamQ7bkJ-WpqZw3I-10" parent="1">
          <mxGeometry relative="1" as="geometry">
            <mxPoint x="465" y="300" as="sourcePoint" />
            <Array as="points">
              <mxPoint x="495" y="330" />
            </Array>
          </mxGeometry>
        </mxCell>
        <mxCell id="BHSRUamQ7bkJ-WpqZw3I-12" value="namespace=metallb" style="endArrow=open;endSize=12;html=1;rounded=0;" edge="1" parent="1" source="BHSRUamQ7bkJ-WpqZw3I-10">
          <mxGeometry width="160" relative="1" as="geometry">
            <mxPoint x="80" y="310" as="sourcePoint" />
            <mxPoint x="70" y="360" as="targetPoint" />
          </mxGeometry>
        </mxCell>
        <mxCell id="BHSRUamQ7bkJ-WpqZw3I-17" value="" style="edgeStyle=orthogonalEdgeStyle;rounded=0;orthogonalLoop=1;jettySize=auto;html=1;exitX=0.5;exitY=0.5;exitDx=0;exitDy=0;exitPerimeter=0;entryX=0.5;entryY=0;entryDx=0;entryDy=0;dashed=1;endArrow=none;endFill=0;" edge="1" parent="1" source="BHSRUamQ7bkJ-WpqZw3I-2" target="BHSRUamQ7bkJ-WpqZw3I-16">
          <mxGeometry relative="1" as="geometry">
            <mxPoint x="65" y="140" as="sourcePoint" />
            <mxPoint x="65" y="659" as="targetPoint" />
          </mxGeometry>
        </mxCell>
        <mxCell id="BHSRUamQ7bkJ-WpqZw3I-16" value="" style="html=1;whiteSpace=wrap;" vertex="1" parent="1">
          <mxGeometry x="57.5" y="300" width="15" height="60" as="geometry" />
        </mxCell>
        <mxCell id="BHSRUamQ7bkJ-WpqZw3I-18" value="provider==kubectl" style="ellipse;whiteSpace=wrap;html=1;" vertex="1" parent="1">
          <mxGeometry x="15" y="240" width="100" height="30" as="geometry" />
        </mxCell>
        <mxCell id="BHSRUamQ7bkJ-WpqZw3I-19" value="apply==true" style="ellipse;whiteSpace=wrap;html=1;" vertex="1" parent="1">
          <mxGeometry x="15" y="200" width="100" height="30" as="geometry" />
        </mxCell>
        <mxCell id="BHSRUamQ7bkJ-WpqZw3I-20" value="warten auf namespaceerstellung" style="edgeStyle=orthogonalEdgeStyle;rounded=0;orthogonalLoop=1;jettySize=auto;html=1;exitX=0;exitY=0;exitDx=0;exitDy=0;entryX=0;entryY=0.5;entryDx=0;entryDy=0;" edge="1" parent="1" source="BHSRUamQ7bkJ-WpqZw3I-16" target="BHSRUamQ7bkJ-WpqZw3I-16">
          <mxGeometry x="-0.1176" y="-80" relative="1" as="geometry">
            <Array as="points">
              <mxPoint x="30" y="300" />
              <mxPoint x="30" y="330" />
            </Array>
            <mxPoint as="offset" />
          </mxGeometry>
        </mxCell>
      </root>
    </mxGraphModel>
  </diagram>
</mxfile>
